<mxfile host="Electron" modified="2024-07-31T03:01:19.540Z" agent="Mozilla/5.0 (Windows NT 10.0; Win64; x64) AppleWebKit/537.36 (KHTML, like Gecko) draw.io/23.1.5 Chrome/120.0.6099.109 Electron/28.1.0 Safari/537.36" etag="BqIkzYxKpar_QIrKHLII" version="23.1.5" type="device">
  <diagram name="Page-1" id="_Pgi_4-e0fUafFxGwACF">
    <mxGraphModel dx="880" dy="532" grid="1" gridSize="10" guides="1" tooltips="1" connect="1" arrows="1" fold="1" page="1" pageScale="1" pageWidth="827" pageHeight="1169" math="0" shadow="0">
      <root>
        <mxCell id="0" />
        <mxCell id="1" parent="0" />
        <mxCell id="iP37riEp_5XLza5qGE6T-1" value="" style="group" parent="1" vertex="1" connectable="0">
          <mxGeometry x="100" y="40" width="591" height="920" as="geometry" />
        </mxCell>
        <mxCell id="SyrViHXgQwSyW3VpiEb6-1" value="&lt;font style=&quot;font-size: 14px;&quot;&gt;START&lt;/font&gt;" style="ellipse;whiteSpace=wrap;html=1;" parent="iP37riEp_5XLza5qGE6T-1" vertex="1">
          <mxGeometry x="101" width="120" height="60" as="geometry" />
        </mxCell>
        <mxCell id="SyrViHXgQwSyW3VpiEb6-2" value="&lt;font style=&quot;font-size: 14px;&quot;&gt;Khởi tạo mạng và cho phép các thiết bị gia nhập mạng&lt;/font&gt;" style="rounded=0;whiteSpace=wrap;html=1;" parent="iP37riEp_5XLza5qGE6T-1" vertex="1">
          <mxGeometry x="51" y="110" width="220" height="60" as="geometry" />
        </mxCell>
        <mxCell id="SyrViHXgQwSyW3VpiEb6-43" value="" style="edgeStyle=orthogonalEdgeStyle;rounded=0;orthogonalLoop=1;jettySize=auto;html=1;" parent="iP37riEp_5XLza5qGE6T-1" source="SyrViHXgQwSyW3VpiEb6-1" target="SyrViHXgQwSyW3VpiEb6-2" edge="1">
          <mxGeometry relative="1" as="geometry" />
        </mxCell>
        <mxCell id="SyrViHXgQwSyW3VpiEb6-3" value="&lt;font style=&quot;font-size: 14px;&quot;&gt;Tiến hành Binding và Group giữa các thiết bị&lt;/font&gt;" style="rounded=0;whiteSpace=wrap;html=1;" parent="iP37riEp_5XLza5qGE6T-1" vertex="1">
          <mxGeometry x="51" y="230" width="220" height="60" as="geometry" />
        </mxCell>
        <mxCell id="SyrViHXgQwSyW3VpiEb6-44" value="" style="edgeStyle=orthogonalEdgeStyle;rounded=0;orthogonalLoop=1;jettySize=auto;html=1;" parent="iP37riEp_5XLza5qGE6T-1" source="SyrViHXgQwSyW3VpiEb6-2" target="SyrViHXgQwSyW3VpiEb6-3" edge="1">
          <mxGeometry relative="1" as="geometry" />
        </mxCell>
        <mxCell id="SyrViHXgQwSyW3VpiEb6-4" value="&lt;font style=&quot;font-size: 14px;&quot;&gt;Thoát mạng?&lt;/font&gt;" style="rhombus;whiteSpace=wrap;html=1;" parent="iP37riEp_5XLza5qGE6T-1" vertex="1">
          <mxGeometry x="76" y="349" width="170" height="80" as="geometry" />
        </mxCell>
        <mxCell id="SyrViHXgQwSyW3VpiEb6-45" value="" style="edgeStyle=orthogonalEdgeStyle;rounded=0;orthogonalLoop=1;jettySize=auto;html=1;" parent="iP37riEp_5XLza5qGE6T-1" source="SyrViHXgQwSyW3VpiEb6-3" target="SyrViHXgQwSyW3VpiEb6-4" edge="1">
          <mxGeometry relative="1" as="geometry" />
        </mxCell>
        <mxCell id="SyrViHXgQwSyW3VpiEb6-5" value="&lt;font style=&quot;font-size: 14px;&quot;&gt;END&lt;/font&gt;" style="ellipse;whiteSpace=wrap;html=1;" parent="iP37riEp_5XLza5qGE6T-1" vertex="1">
          <mxGeometry x="471" y="359" width="120" height="60" as="geometry" />
        </mxCell>
        <mxCell id="SyrViHXgQwSyW3VpiEb6-11" value="" style="edgeStyle=orthogonalEdgeStyle;rounded=0;orthogonalLoop=1;jettySize=auto;html=1;entryX=0;entryY=0.5;entryDx=0;entryDy=0;" parent="iP37riEp_5XLza5qGE6T-1" source="SyrViHXgQwSyW3VpiEb6-4" target="SyrViHXgQwSyW3VpiEb6-5" edge="1">
          <mxGeometry relative="1" as="geometry">
            <mxPoint x="331.0000000000002" y="389" as="targetPoint" />
          </mxGeometry>
        </mxCell>
        <mxCell id="SyrViHXgQwSyW3VpiEb6-41" value="Đúng" style="edgeLabel;html=1;align=center;verticalAlign=middle;resizable=0;points=[];" parent="SyrViHXgQwSyW3VpiEb6-11" vertex="1" connectable="0">
          <mxGeometry x="0.1893" y="1" relative="1" as="geometry">
            <mxPoint as="offset" />
          </mxGeometry>
        </mxCell>
        <mxCell id="SyrViHXgQwSyW3VpiEb6-28" value="&lt;font style=&quot;font-size: 12px;&quot;&gt;Có bản tin Unicast từ ZC gửi đến&lt;br&gt;thiết bị Initiator (Router1)?&lt;/font&gt;" style="rhombus;whiteSpace=wrap;html=1;" parent="iP37riEp_5XLza5qGE6T-1" vertex="1">
          <mxGeometry x="41" y="480" width="240" height="120" as="geometry" />
        </mxCell>
        <mxCell id="SyrViHXgQwSyW3VpiEb6-39" value="" style="edgeStyle=orthogonalEdgeStyle;rounded=0;orthogonalLoop=1;jettySize=auto;html=1;" parent="iP37riEp_5XLza5qGE6T-1" source="SyrViHXgQwSyW3VpiEb6-4" target="SyrViHXgQwSyW3VpiEb6-28" edge="1">
          <mxGeometry relative="1" as="geometry" />
        </mxCell>
        <mxCell id="SyrViHXgQwSyW3VpiEb6-40" value="Sai" style="edgeLabel;html=1;align=center;verticalAlign=middle;resizable=0;points=[];" parent="SyrViHXgQwSyW3VpiEb6-39" vertex="1" connectable="0">
          <mxGeometry x="-0.1307" y="1" relative="1" as="geometry">
            <mxPoint as="offset" />
          </mxGeometry>
        </mxCell>
        <mxCell id="SyrViHXgQwSyW3VpiEb6-30" value="&lt;font style=&quot;font-size: 14px;&quot;&gt;Xây dựng bản tin và gửi cho các thiết bị trong Binding table&lt;/font&gt;" style="rounded=0;whiteSpace=wrap;html=1;" parent="iP37riEp_5XLza5qGE6T-1" vertex="1">
          <mxGeometry x="345" y="510" width="220" height="60" as="geometry" />
        </mxCell>
        <mxCell id="SyrViHXgQwSyW3VpiEb6-24" value="" style="edgeStyle=orthogonalEdgeStyle;rounded=0;orthogonalLoop=1;jettySize=auto;html=1;" parent="iP37riEp_5XLza5qGE6T-1" source="SyrViHXgQwSyW3VpiEb6-28" target="SyrViHXgQwSyW3VpiEb6-30" edge="1">
          <mxGeometry relative="1" as="geometry" />
        </mxCell>
        <mxCell id="SyrViHXgQwSyW3VpiEb6-25" value="Đúng" style="edgeLabel;html=1;align=center;verticalAlign=middle;resizable=0;points=[];" parent="SyrViHXgQwSyW3VpiEb6-24" vertex="1" connectable="0">
          <mxGeometry x="-0.12" relative="1" as="geometry">
            <mxPoint as="offset" />
          </mxGeometry>
        </mxCell>
        <mxCell id="SyrViHXgQwSyW3VpiEb6-35" value="&lt;font style=&quot;font-size: 12px;&quot;&gt;Có bản tin Multicast từ ZC gửi đến?&lt;br&gt;&lt;/font&gt;" style="rhombus;whiteSpace=wrap;html=1;" parent="iP37riEp_5XLza5qGE6T-1" vertex="1">
          <mxGeometry x="41" y="670" width="240" height="120" as="geometry" />
        </mxCell>
        <mxCell id="SyrViHXgQwSyW3VpiEb6-26" value="" style="edgeStyle=orthogonalEdgeStyle;rounded=0;orthogonalLoop=1;jettySize=auto;html=1;" parent="iP37riEp_5XLza5qGE6T-1" source="SyrViHXgQwSyW3VpiEb6-28" target="SyrViHXgQwSyW3VpiEb6-35" edge="1">
          <mxGeometry relative="1" as="geometry" />
        </mxCell>
        <mxCell id="SyrViHXgQwSyW3VpiEb6-27" value="Sai" style="edgeLabel;html=1;align=center;verticalAlign=middle;resizable=0;points=[];" parent="SyrViHXgQwSyW3VpiEb6-26" vertex="1" connectable="0">
          <mxGeometry x="-0.1901" y="-2" relative="1" as="geometry">
            <mxPoint y="1" as="offset" />
          </mxGeometry>
        </mxCell>
        <mxCell id="SyrViHXgQwSyW3VpiEb6-37" value="&lt;font style=&quot;font-size: 14px;&quot;&gt;Xây dựng bản tin và gửi cho các thiết bị trong Group&lt;/font&gt;" style="rounded=0;whiteSpace=wrap;html=1;" parent="iP37riEp_5XLza5qGE6T-1" vertex="1">
          <mxGeometry x="345" y="700" width="220" height="60" as="geometry" />
        </mxCell>
        <mxCell id="SyrViHXgQwSyW3VpiEb6-31" value="" style="edgeStyle=orthogonalEdgeStyle;rounded=0;orthogonalLoop=1;jettySize=auto;html=1;" parent="iP37riEp_5XLza5qGE6T-1" source="SyrViHXgQwSyW3VpiEb6-35" target="SyrViHXgQwSyW3VpiEb6-37" edge="1">
          <mxGeometry relative="1" as="geometry" />
        </mxCell>
        <mxCell id="SyrViHXgQwSyW3VpiEb6-32" value="Đúng" style="edgeLabel;html=1;align=center;verticalAlign=middle;resizable=0;points=[];" parent="SyrViHXgQwSyW3VpiEb6-31" vertex="1" connectable="0">
          <mxGeometry y="-2" relative="1" as="geometry">
            <mxPoint y="-2" as="offset" />
          </mxGeometry>
        </mxCell>
        <mxCell id="SyrViHXgQwSyW3VpiEb6-42" style="edgeStyle=orthogonalEdgeStyle;rounded=0;orthogonalLoop=1;jettySize=auto;html=1;exitX=0.016;exitY=0.475;exitDx=0;exitDy=0;exitPerimeter=0;" parent="iP37riEp_5XLza5qGE6T-1" source="SyrViHXgQwSyW3VpiEb6-38" edge="1">
          <mxGeometry relative="1" as="geometry">
            <mxPoint x="161" y="317" as="targetPoint" />
            <mxPoint x="30" y="910" as="sourcePoint" />
            <Array as="points">
              <mxPoint y="889" />
              <mxPoint y="317" />
            </Array>
          </mxGeometry>
        </mxCell>
        <mxCell id="SyrViHXgQwSyW3VpiEb6-38" value="&lt;font style=&quot;font-size: 14px;&quot;&gt;Thực hiện lệnh được gửi về từ ZC&lt;/font&gt;" style="rounded=0;whiteSpace=wrap;html=1;" parent="iP37riEp_5XLza5qGE6T-1" vertex="1">
          <mxGeometry x="36" y="860" width="250" height="60" as="geometry" />
        </mxCell>
        <mxCell id="SyrViHXgQwSyW3VpiEb6-29" style="edgeStyle=orthogonalEdgeStyle;rounded=0;orthogonalLoop=1;jettySize=auto;html=1;entryX=1;entryY=0.5;entryDx=0;entryDy=0;" parent="iP37riEp_5XLza5qGE6T-1" source="SyrViHXgQwSyW3VpiEb6-30" target="SyrViHXgQwSyW3VpiEb6-38" edge="1">
          <mxGeometry relative="1" as="geometry">
            <Array as="points">
              <mxPoint x="591" y="551" />
              <mxPoint x="591" y="890" />
            </Array>
          </mxGeometry>
        </mxCell>
        <mxCell id="SyrViHXgQwSyW3VpiEb6-33" value="" style="edgeStyle=orthogonalEdgeStyle;rounded=0;orthogonalLoop=1;jettySize=auto;html=1;" parent="iP37riEp_5XLza5qGE6T-1" source="SyrViHXgQwSyW3VpiEb6-35" target="SyrViHXgQwSyW3VpiEb6-38" edge="1">
          <mxGeometry relative="1" as="geometry" />
        </mxCell>
        <mxCell id="SyrViHXgQwSyW3VpiEb6-34" value="Sai" style="edgeLabel;html=1;align=center;verticalAlign=middle;resizable=0;points=[];" parent="SyrViHXgQwSyW3VpiEb6-33" vertex="1" connectable="0">
          <mxGeometry x="-0.175" y="-1" relative="1" as="geometry">
            <mxPoint as="offset" />
          </mxGeometry>
        </mxCell>
        <mxCell id="SyrViHXgQwSyW3VpiEb6-36" style="edgeStyle=orthogonalEdgeStyle;rounded=0;orthogonalLoop=1;jettySize=auto;html=1;entryX=1;entryY=0.5;entryDx=0;entryDy=0;" parent="iP37riEp_5XLza5qGE6T-1" source="SyrViHXgQwSyW3VpiEb6-37" target="SyrViHXgQwSyW3VpiEb6-38" edge="1">
          <mxGeometry relative="1" as="geometry">
            <Array as="points">
              <mxPoint x="591" y="742" />
              <mxPoint x="591" y="890" />
            </Array>
          </mxGeometry>
        </mxCell>
      </root>
    </mxGraphModel>
  </diagram>
</mxfile>
